<svg width="24" height="24" viewBox="0 0 24 24" fill="none" xmlns="http://www.w3.org/2000/svg">
<g id="Icons/send-plane-2-fill" clip-path="url(#clip0_1017_1479)">
<g id="Group">
<path id="Vector" d="M3 13.0016H9V11.0016H3V1.84757C3.00001 1.76069 3.02267 1.6753 3.06573 1.59984C3.1088 1.52438 3.17078 1.46144 3.24558 1.41723C3.32037 1.37302 3.4054 1.34906 3.49227 1.34772C3.57915 1.34637 3.66487 1.36769 3.741 1.40957L22.203 11.5636C22.2814 11.6067 22.3468 11.6701 22.3923 11.7472C22.4378 11.8242 22.4618 11.9121 22.4618 12.0016C22.4618 12.0911 22.4378 12.1789 22.3923 12.256C22.3468 12.333 22.2814 12.3964 22.203 12.4396L3.741 22.5936C3.66487 22.6354 3.57915 22.6568 3.49227 22.6554C3.4054 22.6541 3.32037 22.6301 3.24558 22.5859C3.17078 22.5417 3.1088 22.4788 3.06573 22.4033C3.02267 22.3278 3.00001 22.2425 3 22.1556V13.0016Z" fill="white"/>
</g>
</g>
<defs>
<clipPath id="clip0_1017_1479">
<rect width="24" height="24" fill="white"/>
</clipPath>
</defs>
</svg>
