<svg width="40" height="40" viewBox="0 0 40 40" fill="none" xmlns="http://www.w3.org/2000/svg">
<g id="arrow">
<g id="Ellipse 70">
<path id="Vector" d="M20 40C31.0457 40 40 31.0457 40 20C40 8.9543 31.0457 0 20 0C8.9543 0 0 8.9543 0 20C0 31.0457 8.9543 40 20 40Z" fill="white"/>
<path id="Vector_2" d="M20 39.5C30.7696 39.5 39.5 30.7696 39.5 20C39.5 9.23045 30.7696 0.5 20 0.5C9.23045 0.5 0.5 9.23045 0.5 20C0.5 30.7696 9.23045 39.5 20 39.5Z" stroke="#EAECED" stroke-miterlimit="10"/>
</g>
<g id="arrow_2">
<g id="Group 480">
<path id="Path 1167" d="M27.4914 20.173L22.4914 15.486C22.4271 15.4271 22.3431 15.3945 22.2559 15.3945C22.1688 15.3945 22.0848 15.4271 22.0204 15.486C21.9898 15.5141 21.9654 15.5482 21.9487 15.5863C21.9319 15.6243 21.9233 15.6654 21.9233 15.707C21.9233 15.7485 21.9319 15.7896 21.9487 15.8277C21.9654 15.8657 21.9898 15.8999 22.0204 15.928L26.4514 20.082H11.9244C11.8819 20.0796 11.8393 20.0859 11.7993 20.1005C11.7593 20.1151 11.7227 20.1377 11.6918 20.167C11.6608 20.1962 11.6362 20.2315 11.6193 20.2706C11.6024 20.3097 11.5938 20.3519 11.5938 20.3945C11.5938 20.4371 11.6024 20.4792 11.6193 20.5183C11.6362 20.5574 11.6608 20.5927 11.6918 20.622C11.7227 20.6512 11.7593 20.6738 11.7993 20.6885C11.8393 20.7031 11.8819 20.7094 11.9244 20.707H26.4534L22.0224 24.861C21.9918 24.8891 21.9674 24.9232 21.9507 24.9613C21.9339 24.9993 21.9253 25.0404 21.9253 25.082C21.9253 25.1235 21.9339 25.1646 21.9507 25.2027C21.9674 25.2407 21.9918 25.2749 22.0224 25.303C22.0868 25.3618 22.1708 25.3944 22.2579 25.3944C22.3451 25.3944 22.4291 25.3618 22.4934 25.303L27.4934 20.615C27.5239 20.5867 27.5482 20.5525 27.5648 20.5143C27.5813 20.4762 27.5897 20.4351 27.5896 20.3935C27.5894 20.352 27.5806 20.3109 27.5637 20.2729C27.5468 20.235 27.5222 20.2009 27.4914 20.173V20.173Z" stroke="#FEB918" stroke-miterlimit="10"/>
</g>
</g>
</g>
</svg>
