<svg width="901" height="132" viewBox="0 0 901 132" fill="none" xmlns="http://www.w3.org/2000/svg">
<circle cx="44" cy="44" r="44" fill="#335DFF"/>
<circle cx="857" cy="44" r="44" fill="#0BD28E"/>
<circle cx="448" cy="88" r="44" fill="#F7CA00"/>
<path d="M59.8171 28C59.6672 28 59.5192 28.01 59.3728 28.0225C59.3363 28.0125 59.3005 28 59.2614 28H37.814C34.9308 28 32.5855 30.3453 32.5855 33.2285V55.2358H23.4357C23.1947 55.2358 23 55.4302 23 55.6715C23 58.554 25.3453 60.9 28.2285 60.9C28.3357 60.9 28.4305 60.8565 28.5066 60.7927C28.5824 60.8565 28.6772 60.9 28.7844 60.9H50.2316C53.1148 60.9 55.4601 58.5541 55.4601 55.6715C55.4601 55.6324 55.4473 55.5966 55.4381 55.5608C55.4473 55.5243 55.4601 55.4893 55.4601 55.4498V54.0337V33.6645H64.6099C64.8507 33.6645 65.0456 33.4697 65.0456 33.2289C65.0455 30.3453 62.7002 28 59.8171 28ZM50.2316 60.0286C47.8292 60.0286 45.8745 58.0747 45.8745 55.6715C45.8745 55.4302 45.6797 55.2358 45.4388 55.2358H33.4569V33.2285C33.4569 30.8258 35.4115 28.8714 37.814 28.8714H56.933C55.5221 29.8086 54.5886 31.4107 54.5886 33.2285V54.0332V55.4493C54.5886 55.4884 54.6013 55.5243 54.6107 55.56C54.6013 55.5966 54.5886 55.6316 54.5886 55.6705C54.5886 58.0737 52.634 60.0286 50.2316 60.0286Z" fill="white"/>
<path d="M50.776 51.418H38.5763C38.3352 51.418 38.1406 51.6127 38.1406 51.8537C38.1406 52.0945 38.3353 52.2892 38.5763 52.2892H50.776C51.0168 52.2892 51.2117 52.0945 51.2117 51.8537C51.2117 51.6127 51.0168 51.418 50.776 51.418Z" fill="white"/>
<path d="M50.776 47.0625H38.5763C38.3352 47.0625 38.1406 47.2573 38.1406 47.4983C38.1406 47.7391 38.3353 47.9338 38.5763 47.9338H50.776C51.0168 47.9338 51.2117 47.7391 51.2117 47.4983C51.2117 47.2573 51.0168 47.0625 50.776 47.0625Z" fill="white"/>
<path d="M50.776 42.7031H38.5763C38.3352 42.7031 38.1406 42.8978 38.1406 43.1388C38.1406 43.3796 38.3353 43.5745 38.5763 43.5745H50.776C51.0168 43.5745 51.2117 43.3796 51.2117 43.1388C51.2117 42.8978 51.0168 42.7031 50.776 42.7031Z" fill="white"/>
<path d="M50.776 38.3477H38.5763C38.3352 38.3477 38.1406 38.5423 38.1406 38.7833C38.1406 39.0242 38.3353 39.2191 38.5763 39.2191H50.776C51.0168 39.2191 51.2117 39.0242 51.2117 38.7833C51.2117 38.5422 51.0168 38.3477 50.776 38.3477Z" fill="white"/>
<path d="M50.776 33.9922H38.5763C38.3352 33.9922 38.1406 34.1869 38.1406 34.4279C38.1406 34.6687 38.3353 34.8635 38.5763 34.8635H50.776C51.0168 34.8635 51.2117 34.6686 51.2117 34.4279C51.2117 34.1869 51.0168 33.9922 50.776 33.9922Z" fill="white"/>
<path d="M439.643 91.9218C437.013 91.9218 434.873 94.0612 434.873 96.6909C434.873 99.3206 437.013 101.46 439.643 101.46C442.273 101.46 444.412 99.3206 444.412 96.6909C444.412 94.0612 442.273 91.9218 439.643 91.9218ZM439.643 98.6155C438.582 98.6155 437.718 97.7523 437.718 96.6909C437.718 95.6299 438.582 94.7663 439.643 94.7663C440.704 94.7663 441.568 95.6295 441.568 96.6909C441.568 97.7519 440.704 98.6155 439.643 98.6155Z" fill="white"/>
<path d="M466.338 91.9218C463.708 91.9218 461.568 94.0612 461.568 96.6909C461.568 99.3206 463.708 101.46 466.338 101.46C468.968 101.46 471.107 99.3206 471.107 96.6909C471.108 94.0612 468.968 91.9218 466.338 91.9218ZM466.338 98.6155C465.277 98.6155 464.413 97.7523 464.413 96.6909C464.413 95.6299 465.276 94.7663 466.338 94.7663C467.399 94.7663 468.262 95.6295 468.262 96.6909C468.263 97.7519 467.399 98.6155 466.338 98.6155Z" fill="white"/>
<path d="M455.125 75H435.017C432.273 75 430.039 77.2332 430.039 79.978V96.504C430.039 97.2896 430.676 97.9261 431.462 97.9261C432.247 97.9261 432.884 97.2896 432.884 96.504V79.978C432.884 78.8019 433.841 77.8445 435.017 77.8445H455.125C456.302 77.8445 457.259 78.8019 457.259 79.978V92.9481C457.259 94.1242 456.302 95.0816 455.125 95.0816H446.845C446.059 95.0816 445.422 95.7181 445.422 96.5036C445.422 97.2892 446.059 97.9257 446.845 97.9257H455.125C457.869 97.9257 460.103 95.6925 460.103 92.9477V79.978C460.103 77.2332 457.87 75 455.125 75Z" fill="white"/>
<path d="M475.322 89.5584L471.975 82.6786C471.737 82.1895 471.241 81.8789 470.696 81.8789H463.073C462.287 81.8789 461.65 82.5154 461.65 83.301C461.65 84.0865 462.287 84.723 463.073 84.723H469.807L472.621 90.5083V96.5028C472.621 97.2883 473.258 97.9249 474.043 97.9249C474.829 97.9249 475.466 97.2883 475.466 96.5028V90.1807C475.465 89.9655 475.416 89.7523 475.322 89.5584Z" fill="white"/>
<path d="M426.638 88.9531H420.711C420.318 88.9531 420 89.272 420 89.6646C420 90.0571 420.318 90.376 420.711 90.376H426.638C427.031 90.376 427.349 90.0571 427.349 89.6646C427.349 89.272 427.03 88.9531 426.638 88.9531Z" fill="white"/>
<path d="M426.638 92.582H423.438C423.045 92.582 422.727 92.9009 422.727 93.2935C422.727 93.686 423.045 94.0049 423.438 94.0049H426.638C427.031 94.0049 427.349 93.686 427.349 93.2935C427.349 92.9009 427.031 92.582 426.638 92.582Z" fill="white"/>
<path d="M453.602 90.6151C453.994 90.6151 454.313 90.2963 454.313 89.9037V83.325C454.313 81.2014 453.176 80.125 450.935 80.125H443.113C442.72 80.125 442.402 80.4435 442.402 80.8364C442.402 81.229 442.721 81.5479 443.113 81.5479H450.935C452.57 81.5479 452.89 82.1994 452.89 83.3254V89.9041C452.89 90.2963 453.209 90.6151 453.602 90.6151Z" fill="white"/>
<path d="M540 97.6406C580.5 74.6406 641.1 40.1406 751.5 64.1406" stroke="#667085" stroke-dasharray="5 5"/>
<path d="M133.5 55C174 78 234.6 112.5 345 88.5" stroke="#667085" stroke-dasharray="5 5"/>
<path d="M856.512 24C845.756 24 837 32.7547 837 43.5167C837 54.2745 845.756 63.03 856.512 63.03C867.271 63.03 876.024 54.2745 876.024 43.5167C876.024 32.7547 867.271 24 856.512 24ZM856.512 61.1496C846.791 61.1496 838.88 53.24 838.88 43.5161C838.88 33.7922 846.79 25.8796 856.512 25.8796C866.234 25.8796 874.144 33.792 874.144 43.5161C874.144 53.2402 866.234 61.1496 856.512 61.1496Z" fill="white"/>
<path d="M857.447 42.1456C854.859 41.0465 853.953 40.275 853.953 38.7598C853.953 37.5434 854.623 36.1741 856.912 36.1741C858.813 36.1741 860.029 36.8605 860.654 37.2149L861.396 35.2539C860.504 34.7499 859.289 34.2719 857.536 34.2164V31.3281H855.663V34.3005C852.958 34.7497 851.209 36.6197 851.209 39.0845C851.209 41.6702 853.082 43.065 856.108 44.2553C858.31 45.1467 859.279 46.1581 859.275 47.7908C859.279 49.488 858.039 50.7044 855.933 50.7044C854.267 50.7044 852.72 50.1119 851.683 49.4298L850.971 51.4169C852.008 52.1588 853.764 52.695 855.484 52.7274V55.6965H857.356V52.6073C860.415 52.1321 862.051 49.9311 862.051 47.5566C862.052 44.9133 860.507 43.3971 857.447 42.1456Z" fill="white"/>
</svg>
